<svg height='300px' width='300px'  fill="#FFFFFF" xmlns="http://www.w3.org/2000/svg" xmlns:xlink="http://www.w3.org/1999/xlink" version="1.1" x="0px" y="0px" viewBox="0 0 128 128" style="enable-background:new 0 0 128 128;" xml:space="preserve"><g><g><g><path d="M104.514,118.5H7.278c-2.634,0-4.778-2.144-4.778-4.778V30.48c0-2.634,2.144-4.778,4.778-4.778h13.43     c1.104,0,2,0.896,2,2s-0.896,2-2,2H7.278c-0.429,0-0.778,0.349-0.778,0.778v83.242c0,0.429,0.349,0.778,0.778,0.778h97.236     c0.429,0,0.778-0.349,0.778-0.778v-13.424c0-1.104,0.896-2,2-2s2,0.896,2,2v13.424C109.292,116.356,107.148,118.5,104.514,118.5z     "></path><g><path d="M20.292,48.253H6.355c-1.104,0-2-0.896-2-2s0.896-2,2-2h13.936c1.104,0,2,0.896,2,2S21.396,48.253,20.292,48.253z"></path></g></g><g><g><path d="M120.722,102.298H23.486c-2.634,0-4.777-2.144-4.777-4.778V14.278c0-2.634,2.143-4.778,4.777-4.778h97.236      c2.634,0,4.778,2.144,4.778,4.778V97.52C125.5,100.154,123.356,102.298,120.722,102.298z M23.486,13.5      c-0.429,0-0.777,0.349-0.777,0.778V97.52c0,0.429,0.349,0.778,0.777,0.778h97.236c0.429,0,0.778-0.349,0.778-0.778V14.278      c0-0.429-0.349-0.778-0.778-0.778H23.486z"></path><g><path d="M123.5,32.051H22.563c-1.104,0-2-0.896-2-2s0.896-2,2-2H123.5c1.104,0,2,0.896,2,2S124.604,32.051,123.5,32.051z"></path></g><g><path d="M39.582,22.38H32.16c-1.104,0-2-0.896-2-2s0.896-2,2-2h7.422c1.104,0,2,0.896,2,2S40.687,22.38,39.582,22.38z"></path></g><g><path d="M56.481,22.38H49.06c-1.104,0-2-0.896-2-2s0.896-2,2-2h7.422c1.104,0,2,0.896,2,2S57.586,22.38,56.481,22.38z"></path></g></g><g><path d="M44.934,64.353l16.075,6.592l-1.177,3.476L40.27,66.159v-3.612l19.561-8.264l1.177,3.478L44.934,64.353z"></path><path d="M66.625,86.206h-4.303L77.673,42.5h4.212L66.625,86.206z"></path><path d="M83.199,57.762l1.177-3.478l19.561,8.264v3.612l-19.561,8.262l-1.177-3.476l16.075-6.592L83.199,57.762z"></path></g></g></g></g></svg>